<svg width="96" height="16" viewBox="0 0 96 16" fill="none" xmlns="http://www.w3.org/2000/svg">
<path d="M12.3131 15.0005C12.2079 15.0009 12.1052 14.9681 12.0197 14.9067L8.00064 11.993L3.98158 14.9067C3.89571 14.969 3.79227 15.0024 3.6862 15.002C3.58012 15.0016 3.47692 14.9675 3.39151 14.9046C3.3061 14.8417 3.24291 14.7532 3.21107 14.6521C3.17923 14.5509 3.18039 14.4422 3.21439 14.3417L4.78189 9.69892L0.719389 6.91298C0.631393 6.8527 0.564978 6.76586 0.529849 6.66515C0.49472 6.56444 0.492718 6.45513 0.524134 6.3532C0.555551 6.25127 0.618741 6.16206 0.704471 6.0986C0.790201 6.03514 0.893978 6.00076 1.00064 6.00048H6.01252L7.52501 1.34579C7.5576 1.2453 7.62117 1.15771 7.70662 1.09558C7.79207 1.03346 7.895 1 8.00064 1C8.10628 1 8.20921 1.03346 8.29466 1.09558C8.38011 1.15771 8.44368 1.2453 8.47627 1.34579L9.98876 6.00204H15.0006C15.1074 6.00199 15.2114 6.03613 15.2974 6.09947C15.3834 6.16281 15.4469 6.25201 15.4785 6.35402C15.5101 6.45603 15.5082 6.56548 15.4731 6.66634C15.438 6.76721 15.3716 6.85419 15.2835 6.91454L11.2194 9.69892L12.786 14.3405C12.8113 14.4156 12.8185 14.4957 12.8068 14.5742C12.7951 14.6526 12.7649 14.7272 12.7187 14.7917C12.6725 14.8561 12.6116 14.9087 12.5411 14.945C12.4706 14.9813 12.3925 15.0003 12.3131 15.0005Z" fill="url(#paint0_linear_148_6948)"/>
<path d="M32.3131 15.0005C32.2079 15.0009 32.1052 14.9681 32.0197 14.9067L28.0006 11.993L23.9816 14.9067C23.8957 14.969 23.7923 15.0024 23.6862 15.002C23.5801 15.0016 23.4769 14.9675 23.3915 14.9046C23.3061 14.8417 23.2429 14.7532 23.2111 14.6521C23.1792 14.5509 23.1804 14.4422 23.2144 14.3417L24.7819 9.69892L20.7194 6.91298C20.6314 6.8527 20.565 6.76586 20.5298 6.66515C20.4947 6.56444 20.4927 6.45513 20.5241 6.3532C20.5556 6.25127 20.6187 6.16206 20.7045 6.0986C20.7902 6.03514 20.894 6.00076 21.0006 6.00048H26.0125L27.525 1.34579C27.5576 1.2453 27.6212 1.15771 27.7066 1.09558C27.7921 1.03346 27.895 1 28.0006 1C28.1063 1 28.2092 1.03346 28.2947 1.09558C28.3801 1.15771 28.4437 1.2453 28.4763 1.34579L29.9888 6.00204H35.0006C35.1074 6.00199 35.2114 6.03613 35.2974 6.09947C35.3834 6.16281 35.4469 6.25201 35.4785 6.35402C35.5101 6.45603 35.5082 6.56548 35.4731 6.66634C35.438 6.76721 35.3716 6.85419 35.2835 6.91454L31.2194 9.69892L32.786 14.3405C32.8113 14.4156 32.8185 14.4957 32.8068 14.5742C32.7951 14.6526 32.7649 14.7272 32.7187 14.7917C32.6725 14.8561 32.6116 14.9087 32.5411 14.945C32.4706 14.9813 32.3925 15.0003 32.3131 15.0005Z" fill="url(#paint1_linear_148_6948)"/>
<path d="M52.3131 15.0005C52.2079 15.0009 52.1052 14.9681 52.0197 14.9067L48.0006 11.993L43.9816 14.9067C43.8957 14.969 43.7923 15.0024 43.6862 15.002C43.5801 15.0016 43.4769 14.9675 43.3915 14.9046C43.3061 14.8417 43.2429 14.7532 43.2111 14.6521C43.1792 14.5509 43.1804 14.4422 43.2144 14.3417L44.7819 9.69892L40.7194 6.91298C40.6314 6.8527 40.565 6.76586 40.5298 6.66515C40.4947 6.56444 40.4927 6.45513 40.5241 6.3532C40.5556 6.25127 40.6187 6.16206 40.7045 6.0986C40.7902 6.03514 40.894 6.00076 41.0006 6.00048H46.0125L47.525 1.34579C47.5576 1.2453 47.6212 1.15771 47.7066 1.09558C47.7921 1.03346 47.895 1 48.0006 1C48.1063 1 48.2092 1.03346 48.2947 1.09558C48.3801 1.15771 48.4437 1.2453 48.4763 1.34579L49.9888 6.00204H55.0006C55.1074 6.00199 55.2114 6.03613 55.2974 6.09947C55.3834 6.16281 55.4469 6.25201 55.4785 6.35402C55.5101 6.45603 55.5082 6.56548 55.4731 6.66634C55.438 6.76721 55.3716 6.85419 55.2835 6.91454L51.2194 9.69892L52.786 14.3405C52.8113 14.4156 52.8185 14.4957 52.8068 14.5742C52.7951 14.6526 52.7649 14.7272 52.7187 14.7917C52.6725 14.8561 52.6116 14.9087 52.5411 14.945C52.4706 14.9813 52.3925 15.0003 52.3131 15.0005Z" fill="url(#paint2_linear_148_6948)"/>
<path d="M72.3131 15.0005C72.2079 15.0009 72.1052 14.9681 72.0197 14.9067L68.0006 11.993L63.9816 14.9067C63.8957 14.969 63.7923 15.0024 63.6862 15.002C63.5801 15.0016 63.4769 14.9675 63.3915 14.9046C63.3061 14.8417 63.2429 14.7532 63.2111 14.6521C63.1792 14.5509 63.1804 14.4422 63.2144 14.3417L64.7819 9.69892L60.7194 6.91298C60.6314 6.8527 60.565 6.76586 60.5298 6.66515C60.4947 6.56444 60.4927 6.45513 60.5241 6.3532C60.5556 6.25127 60.6187 6.16206 60.7045 6.0986C60.7902 6.03514 60.894 6.00076 61.0006 6.00048H66.0125L67.525 1.34579C67.5576 1.2453 67.6212 1.15771 67.7066 1.09558C67.7921 1.03346 67.895 1 68.0006 1C68.1063 1 68.2092 1.03346 68.2947 1.09558C68.3801 1.15771 68.4437 1.2453 68.4763 1.34579L69.9888 6.00204H75.0006C75.1074 6.00199 75.2114 6.03613 75.2974 6.09947C75.3834 6.16281 75.4469 6.25201 75.4785 6.35402C75.5101 6.45603 75.5082 6.56548 75.4731 6.66634C75.438 6.76721 75.3716 6.85419 75.2835 6.91454L71.2194 9.69892L72.786 14.3405C72.8113 14.4156 72.8185 14.4957 72.8068 14.5742C72.7951 14.6526 72.7649 14.7272 72.7187 14.7917C72.6725 14.8561 72.6116 14.9087 72.5411 14.945C72.4706 14.9813 72.3925 15.0003 72.3131 15.0005Z" fill="url(#paint3_linear_148_6948)"/>
<path d="M95 6.5H89.625L88 1.5L86.375 6.5H81L85.375 9.5L83.6875 14.5L88 11.375L92.3125 14.5L90.625 9.5L95 6.5Z" stroke="url(#paint4_linear_148_6948)" stroke-linejoin="round"/>
<path d="M88 1.5V11.375L83.6875 14.5L85.375 9.5L81 6.5H86.375L88 1.5Z" fill="url(#paint5_linear_148_6948)"/>
<defs>
<linearGradient id="paint0_linear_148_6948" x1="2.33398" y1="2.00049" x2="12.334" y2="15.3338" gradientUnits="userSpaceOnUse">
<stop stop-color="#F84119"/>
<stop offset="1" stop-color="#F89F19" stop-opacity="0.68"/>
</linearGradient>
<linearGradient id="paint1_linear_148_6948" x1="22.334" y1="2.00049" x2="32.334" y2="15.3338" gradientUnits="userSpaceOnUse">
<stop stop-color="#F84119"/>
<stop offset="1" stop-color="#F89F19" stop-opacity="0.68"/>
</linearGradient>
<linearGradient id="paint2_linear_148_6948" x1="42.334" y1="2.00049" x2="52.334" y2="15.3338" gradientUnits="userSpaceOnUse">
<stop stop-color="#F84119"/>
<stop offset="1" stop-color="#F89F19" stop-opacity="0.68"/>
</linearGradient>
<linearGradient id="paint3_linear_148_6948" x1="62.334" y1="2.00049" x2="72.334" y2="15.3338" gradientUnits="userSpaceOnUse">
<stop stop-color="#F84119"/>
<stop offset="1" stop-color="#F89F19" stop-opacity="0.68"/>
</linearGradient>
<linearGradient id="paint4_linear_148_6948" x1="82.71" y1="2.42889" x2="91.9805" y2="14.8555" gradientUnits="userSpaceOnUse">
<stop stop-color="#F84119"/>
<stop offset="1" stop-color="#F89F19" stop-opacity="0.68"/>
</linearGradient>
<linearGradient id="paint5_linear_148_6948" x1="81.855" y1="2.42889" x2="90.8005" y2="8.42443" gradientUnits="userSpaceOnUse">
<stop stop-color="#F84119"/>
<stop offset="1" stop-color="#F89F19" stop-opacity="0.68"/>
</linearGradient>
</defs>
</svg>
